<svg width="232" height="500" fill="none" xmlns="http://www.w3.org/2000/svg"><path d="M142 184.084v-15h60v-39l-60-68.1h-33v68.1H97v39h12v15h33zm0-86.1 27 32.1h-27v-32.1zM95.5 250.012c0 41.55 17.7 61.5 54.15 61.5 36.3 0 53.85-19.95 53.85-61.5 0-41.7-17.4-61.5-53.85-61.5-36.6 0-54.15 19.8-54.15 61.5zm33 0c0-18.45 9.9-22.5 21.15-22.5 11.1 0 20.85 3.9 20.85 22.5s-9.9 22.5-20.85 22.5c-11.1 0-21.15-4.05-21.15-22.5zM142 438.088v-15h60v-39l-60-68.1h-33v68.1H97v39h12v15h33zm0-86.1 27 32.1h-27v-32.1z" fill="#fff"/><path d="M172.188 327.867h-6.309v-24.492a5.566 5.566 0 0 0-5.567-5.566h-12.246V178.688a5.566 5.566 0 0 0-5.566-5.567h-10.168C125.572 158.544 111.03 149 95 149s-30.572 9.544-37.332 24.121H47.5a5.567 5.567 0 0 0-5.566 5.567v119.121H29.688a5.566 5.566 0 0 0-5.567 5.566v24.492h-6.308a5.567 5.567 0 0 0 0 11.133h154.375a5.566 5.566 0 0 0 0-11.133zM53.066 184.254h8.339a5.567 5.567 0 0 0 5.249-3.713c4.31-12.207 15.703-20.408 28.346-20.408 12.644 0 24.035 8.201 28.347 20.408a5.566 5.566 0 0 0 5.248 3.713h8.339v113.555H53.066V184.254zM35.254 327.867v-18.926h119.492v18.926H35.254z" fill="#000"/></svg>