<svg width="380" height="272" fill="none" xmlns="http://www.w3.org/2000/svg"><path d="M192.319 179.921H64.104a4.93 4.93 0 0 1-4.832-3.965L39.546 77.33a4.94 4.94 0 0 1 1.016-4.093 4.93 4.93 0 0 1 3.817-1.805h167.666c1.479 0 2.88.66 3.817 1.805a4.944 4.944 0 0 1 1.025 4.093l-19.725 98.626a4.949 4.949 0 0 1-4.843 3.965zm-124.171-9.862h120.128l17.753-88.765H50.395l17.753 88.765z" fill="#fff"/><path d="M64.108 179.96a4.939 4.939 0 0 1-4.833-3.965L34.825 53.757c-1.38-6.894-7.486-11.894-14.508-11.894h-.01l-15.376.02A4.933 4.933 0 0 1 0 36.95c0-2.722 2.2-4.931 4.931-4.931L20.297 32h.02c11.717 0 21.886 8.334 24.184 19.824l24.44 122.238a4.932 4.932 0 0 1-4.834 5.898z" fill="#fff"/><path d="M212.048 199.66H44.382c-8.157 0-14.794-6.637-14.794-14.794 0-8.156 6.637-14.794 14.794-14.794h19.725a4.934 4.934 0 0 1 4.932 4.932 4.933 4.933 0 0 1-4.932 4.931H44.382a4.933 4.933 0 0 0-4.931 4.931 4.934 4.934 0 0 0 4.93 4.932h167.667a4.933 4.933 0 0 1 4.931 4.931 4.933 4.933 0 0 1-4.931 4.931zM78.903 249.002c-10.878 0-19.725-8.847-19.725-19.726 0-10.878 8.847-19.725 19.725-19.725 10.879 0 19.725 8.847 19.725 19.725 0 10.879-8.846 19.726-19.725 19.726zm0-29.589c-5.434 0-9.863 4.429-9.863 9.863 0 5.435 4.429 9.863 9.863 9.863 5.434 0 9.863-4.428 9.863-9.863 0-5.434-4.428-9.863-9.863-9.863zM167.664 249.002c-10.878 0-19.725-8.847-19.725-19.726 0-10.878 8.847-19.725 19.725-19.725 10.879 0 19.726 8.847 19.726 19.725 0 10.879-8.847 19.726-19.726 19.726zm0-29.589c-5.434 0-9.862 4.429-9.862 9.863 0 5.435 4.428 9.863 9.862 9.863 5.435 0 9.863-4.428 9.863-9.863 0-5.434-4.428-9.863-9.863-9.863z" fill="#fff"/><circle cx="244" cy="136" r="134.5" stroke="#000" stroke-width="3"/><path d="m208 140.5 25 25 61.5-61.5" stroke="#000" stroke-width="3"/></svg>