<svg width="218" height="117" fill="none" xmlns="http://www.w3.org/2000/svg"><path d="M22.49 45.591H10.97V.044H.802V99h10.167V48.302H22.49V99h10.167V.044H22.49v45.547zm26.612 54.765c-5.151 0-7.862-3.118-7.862-9.625v-9.353c0-10.98 5.693-15.318 16.402-25.35V30.952c0-4.338-1.084-5.422-5.558-5.422-7.049 0-8.81 2.982-8.81 7.727 0 5.693 2.304 10.708 13.42 21.96H43.68c-2.711-6.507-3.524-14.234-3.524-20.47 0-8.54 6.642-18.435 15.182-18.435 7.862 0 11.793 4.202 11.793 11.116v55.577c0 7.32 1.356 8.134 2.847 8.134 1.22 0 2.169-.814 2.304-5.287l.407-23.722h1.898l.406 23.18c.136 8.54-1.22 15.047-7.59 15.047-5.559 0-7.999-3.932-6.372-23.18l-1.355-.272c-2.034 20.198-5.423 23.452-10.574 23.452zm3.931-9.896c2.983 0 4.61-8.269 4.61-20.74V58.876c-5.965 5.693-6.914 9.082-6.914 14.775v13.556c0 2.44.949 3.253 2.304 3.253zm47.319-64.118c-4.338 0-9.083 7.185-9.083 20.876V99h-9.488V17.667h9.353v1.49l-2.982 20.605 1.355.271c2.847-20.333 6.236-23.722 10.845-23.722 4.066 0 6.1 4.473 6.1 13.42 0 3.525-.407 12.607-2.711 24.671H93.438c7.727-16.266 10.574-22.095 10.574-24.535 0-2.44-1.22-3.525-3.66-3.525zM122.008.044v19.114l-3.254 20.604 1.356.271c2.847-20.333 7.456-23.722 12.607-23.722 5.015 0 8.675 4.202 8.675 10.98V99h-9.489V32.578c0-4.88-.677-7.05-3.253-7.05-3.796 0-6.642 9.354-6.642 22.096V99h-9.489V.044h9.489zM170.267 99v-1.491l3.253-20.605-1.356-.27c-2.846 20.333-7.455 23.722-12.606 23.722-5.016 0-8.676-4.203-8.676-10.98v-71.71h9.489V84.09c0 4.88.678 7.049 3.253 7.049 3.796 0 6.643-9.354 6.643-21.96V17.667h9.488V99h-9.488zm32.805-24.264h-1.491l-2.982-27.112-4.474-29.957h-10.302l13.42 70.217h3.931l-13.962 28.738h11.658l18.978-98.955h-11.116l-3.66 57.069z" fill="#F4D116"/></svg>