<svg width="46" height="45" viewBox="0 0 46 45" fill="none" xmlns="http://www.w3.org/2000/svg">
<mask id="path-1-inside-1" fill="white">
<path fill-rule="evenodd" clip-rule="evenodd" d="M28 17.5C28 23.299 23.299 28 17.5 28C11.701 28 7 23.299 7 17.5C7 11.701 11.701 7 17.5 7C23.299 7 28 11.701 28 17.5ZM27.5612 31.8204C24.7151 33.8237 21.2449 35 17.5 35C7.83502 35 0 27.165 0 17.5C0 7.83502 7.83502 0 17.5 0C27.165 0 35 7.83502 35 17.5C35 20.7265 34.1268 23.749 32.6039 26.3442L45.2549 38.9951L39.9954 44.2546L27.5612 31.8204Z"/>
</mask>
<path d="M27.5612 31.8204L28.9754 30.4062L27.7858 29.2165L26.41 30.1849L27.5612 31.8204ZM32.6039 26.3442L30.879 25.332L30.0966 26.6653L31.1897 27.7584L32.6039 26.3442ZM45.2549 38.9951L46.6691 40.4094L48.0833 38.9951L46.6691 37.5809L45.2549 38.9951ZM39.9954 44.2546L38.5812 45.6688L39.9954 47.083L41.4096 45.6688L39.9954 44.2546ZM17.5 30C24.4036 30 30 24.4036 30 17.5H26C26 22.1944 22.1944 26 17.5 26V30ZM5 17.5C5 24.4036 10.5964 30 17.5 30V26C12.8056 26 9 22.1944 9 17.5H5ZM17.5 5C10.5964 5 5 10.5964 5 17.5H9C9 12.8056 12.8056 9 17.5 9V5ZM30 17.5C30 10.5964 24.4036 5 17.5 5V9C22.1944 9 26 12.8056 26 17.5H30ZM17.5 37C21.6703 37 25.5403 35.6886 28.7124 33.4559L26.41 30.1849C23.8899 31.9587 20.8195 33 17.5 33V37ZM-2 17.5C-2 28.2696 6.73045 37 17.5 37V33C8.93959 33 2 26.0604 2 17.5H-2ZM17.5 -2C6.73045 -2 -2 6.73045 -2 17.5H2C2 8.93959 8.93959 2 17.5 2V-2ZM37 17.5C37 6.73045 28.2696 -2 17.5 -2V2C26.0604 2 33 8.93959 33 17.5H37ZM34.3289 27.3564C36.027 24.4627 37 21.0919 37 17.5H33C33 20.361 32.2267 23.0353 30.879 25.332L34.3289 27.3564ZM46.6691 37.5809L34.0182 24.93L31.1897 27.7584L43.8407 40.4094L46.6691 37.5809ZM41.4096 45.6688L46.6691 40.4094L43.8407 37.5809L38.5812 42.8404L41.4096 45.6688ZM26.147 33.2346L38.5812 45.6688L41.4096 42.8404L28.9754 30.4062L26.147 33.2346Z" fill="black" mask="url(#path-1-inside-1)"/>
</svg>
